<?xml version="1.0" encoding="utf-8" ?>
<svg baseProfile="full" height="300mm" version="1.1" viewBox="0,0,200,300" width="200mm" xmlns="http://www.w3.org/2000/svg" xmlns:ev="http://www.w3.org/2001/xml-events" xmlns:xlink="http://www.w3.org/1999/xlink"><defs /><rect fill="#222222" height="300" width="200" x="0" y="0" /><text fill="#FFFFFF" style="font-size:12px; font-family:Arial; font-weight:bold;" x="10" y="20">Over 10km Runs</text><text fill="#FFFFFF" style="font-size:4px; font-family:Arial" x="10" y="280">ATHLETE</text><text fill="#FFFFFF" style="font-size:9px; font-family:Arial" x="10" y="290">Zery</text><text fill="#FFFFFF" style="font-size:4px; font-family:Arial" x="65" y="280">SPECIAL TRACKS</text><rect fill="yellow" height="2.6" width="2.6" x="65" y="283" /><text fill="#FFFFFF" style="font-size:3px; font-family:Arial" x="70" y="285.5">Over 20.0 km</text><rect fill="red" height="2.6" width="2.6" x="65" y="287" /><text fill="#FFFFFF" style="font-size:3px; font-family:Arial" x="70" y="289.5">Over 40.0 km</text><text fill="#FFFFFF" style="font-size:4px; font-family:Arial" x="120" y="280">STATISTICS</text><text fill="#FFFFFF" style="font-size:3px; font-family:Arial" x="120" y="285">Number: 2</text><text fill="#FFFFFF" style="font-size:3px; font-family:Arial" x="120" y="290">Weekly: 2.0</text><text fill="#FFFFFF" style="font-size:3px; font-family:Arial" x="141" y="285">Total: 34.2 km</text><text fill="#FFFFFF" style="font-size:3px; font-family:Arial" x="141" y="290">Avg: 17.1 km</text><text fill="#FFFFFF" style="font-size:3px; font-family:Arial" x="167" y="285">Min: 16.8 km</text><text fill="#FFFFFF" style="font-size:3px; font-family:Arial" x="167" y="290">Max: 17.4 km</text><polyline fill="none" points="99.98856080067344,133.5418518105871 100.03431759774685,133.82731517782668 100.05719599628355,135.04701898692292 99.98856080067344,135.20272547053173 99.91992560529616,135.25462761244853 99.71402001858223,135.2805786796962 97.1058825883083,135.2805786796962 96.9457337987842,135.33248080697376 96.8999770017108,135.43628503239597 96.8999770017108,136.16291352416738 97.1058825883083,138.13518127577845 97.15163938538171,139.30296479017125 97.22027458087541,140.00363254197873 97.42618016747292,143.24744169149199 97.40330176905263,143.71454708854435 97.26603137794882,143.87024871300673 97.01436899439432,143.92214923500433 96.28226024191827,144.0 95.64166508370545,144.0 92.5073244876694,143.89619897518423 90.88295819342602,143.76644763970398 90.21948463656008,143.66264652766404 89.62464627518784,143.6885968093411 86.07849450607318,143.61074595703394 85.68956173141487,143.55884537679958 85.46077774628066,143.48099448819994 85.14048016711604,143.32529264551704 85.00320977601223,143.1436403854459 84.88881778344512,142.80628587296815 84.86593938490842,142.2613277180062 84.95745297905523,141.50876469849027 85.00320977601223,140.2371880664141 85.32350735517684,137.43450881016906 86.1242513031466,133.4899493486446 87.67998240177985,127.49514973186888 87.93164478545077,126.35326846537646 88.34345595864579,124.38091703614919 88.57223994366359,123.05735756419017 88.7323887333041,121.78569644267554 89.00692951539531,118.80116277345223 89.09844310942572,115.79064413733431 89.07556471100543,113.636546113441 88.91541592136491,112.39079505074187 88.9611727183219,110.75573829803034 88.91541592136491,108.861136684136 89.05268631246872,106.78484609423322 88.98405111697502,105.46120273813722 89.02980791393202,104.44900061926455 89.14419990649913,103.72228912965511 89.28147029760294,103.15130019612843 89.48737588408403,102.47649357869523 89.53313268115744,101.95741044913302 89.94494385435246,101.02305836990126 90.6312958097551,99.90702259814134 92.27854050241876,97.88257416523993 90.97447178745642,99.4657979159092 90.3567550276639,100.32229224665207 90.03645744849928,100.84137843371718 89.71615986921825,101.51618902586051 89.48737588408403,102.08718132248032 89.46449748566374,102.29481459376984 89.57888947823085,102.24290629048483 89.64752467384096,102.11313548992621 90.26524143351708,100.81542414746946 90.8143229978159,99.95893133815844 91.40916135918815,99.20625365752494 93.01064925489482,97.25966398479068 93.53685242065694,96.66270708353841 93.69700121018104,96.55888836094528 93.42246042808983,96.4031602042669 92.43868929205928,96.22147724439856 92.39293249510229,96.11765835687402 92.4615676907124,95.91002046514768 92.43868929205928,95.72833718251786 92.14127011143137,95.46878942966578 89.09844310942572,94.32677643373609 88.86965912440792,94.19700193236349 88.7323887333041,93.98936260392657 88.66375353781041,93.70385827374412 88.68663193634711,91.65340945642674 88.61799674085341,88.90215053703287 88.57223994366359,88.25326474191388 88.3663343571825,87.1631331910612 88.04603677790146,86.02108602158842 87.49695521371905,84.7752110225847 86.87923845392652,83.78888934868155 86.00985931046307,82.75065222097328 84.70579059538431,81.60858689446468 79.05482616310474,77.50749539176468 77.68212225241587,76.57306100227288 73.56401052046567,74.08122058105073 72.44296899344772,73.30251586076338 71.29904906789307,72.41998120283824 64.52704310871195,66.94301218399778 62.92555521288887,65.43747569157858 62.87979841581546,65.38556049446925 63.039947205455974,65.56726364203496 63.10858240106609,65.56726364203496 63.177217596559785,65.51534846914001 63.200095994980074,65.35960289221839 63.15433919802308,65.1000267364725 62.90267681446858,64.7625773709151 61.850270482944325,63.931931030383566 60.77498575288337,63.334902437141864 60.77498575288337,63.28298684663605 60.86649934691377,63.20511344255647 60.683472158852965,63.20511344255647 60.59195856470615,63.15319782769075 60.11151219601743,62.60808328544954 59.95136340649333,62.34850455558626 58.85320027801208,61.10252327169292 58.34987551078666,60.635278847737936 58.189726721146144,60.375698272226145 58.05245633004233,59.72674577080761 57.64064515684731,59.20758267689962 57.594888359773904,59.10374994156882 57.66352355538402,58.76629328326089 57.64064515684731,58.5845856818778 56.72550921642687,56.45600206049858 55.90188687003683,54.820615745935356 55.32992690731771,53.86014627420809 54.82660214009229,52.76987960122642 54.50630456081126,52.27666231780313 52.60739748447668,48.79815762958606 50.182287242263556,44.514864324446535 49.56457048247103,43.29476261365926 47.96308258676436,40.361304623802425 46.956433052313514,38.440262227813946 46.84204105962999,38.02489996040822 46.86491945828311,37.89509912431822 46.93355465377681,37.81721859352547 47.276730631361715,37.66145746628172 51.62362634856254,36.07788104112842 51.898167130653746,36.0 52.03543752164114,36.05192069648183 52.149829514324665,36.103841383213876 52.378613499342464,36.80476970298332 53.91146619967185,40.4132245038345 54.62069655349478,41.63333888896159 55.35280530585442,43.113044878438814 56.31369804323185,44.852338318218244 57.251712382189,46.721417619730346 58.48714590189047,48.92795336400741 59.4937954362249,50.900841050519375 61.18679692607839,53.65247676210129 62.49086564115714,55.65128936441033 63.039947205455974,56.32620984801906 64.57279990566894,57.90967069202452 66.40307178650983,59.5450387984165 68.43924925406463,61.154439270234434 71.23041387239937,63.15319782769075 75.27989040885586,65.69705153172254 76.95001350017264,66.94301218399778 78.98619096761104,68.63024164969102 79.58102932886686,69.0455580985581 80.31313808134291,69.66853160632309 82.3035587517079,71.43361561649363 85.02608817454893,73.43230013252469 91.82097253226675,78.57170850317925 92.7132300742669,79.32444214227144 94.47486675961409,80.98564019007608 96.46528742997907,83.13999159904779 98.38707290496677,85.03476877519279 99.50811443210114,86.0729973584821 100.19446638727095,86.77379945665598 103.60334776551463,89.73272214111057 103.94652374309953,89.9922752577113 105.09044366865419,90.952619678661 107.2867699257331,92.71756832825486 109.16279860364739,94.17104702477809 110.78716489800718,95.26115105257486 112.20562560565304,96.16956780551118 113.7155999073293,97.02607230679132 114.26468147151172,97.31157321986393 114.74512784031685,97.5970738393953 114.99679022398777,97.726846751204 115.43147979560308,97.8566196023312 116.07207495393232,98.14211966117728 117.6506844512187,98.6871644128114 120.57911946065724,99.56961555124144 123.21013528935146,100.0887031457969 125.68100232852157,100.42610956172575 126.45886787795462,100.6077897696814 128.81534292455763,100.97114982889616 130.62273640697822,101.33450941243791 131.78953473095316,101.49023480259348 132.1555891071912,101.51618902586051 132.63603547599632,101.64596010549576 134.26040177012328,101.85359370676451 138.4471486976836,101.69786852036486 139.08774385601282,101.62000589439413 141.1239213234512,100.97114982889616 143.36600437760353,100.34824657908757 144.25826191948727,100.03679443002329 145.56233063456602,99.69938754086616 146.54610177059658,99.36198024160694 149.1999959978275,98.6352554349869 150.66421350254677,98.16807419745601 151.3276870594127,98.01234694360755 152.76902616559528,97.44134626511368 153.1579589402536,97.36348244527471 152.49448538350407,97.46730086693424 151.4192006534431,97.88257416523993 149.81771275762003,98.34975588324596 148.8796984187793,98.6871644128114 148.10183286934625,98.84289128810633 140.30029897706117,101.17878393485444 140.20878538303077,101.17878393485444 140.11727178900037,101.12687542289495 140.23166378156748,100.94519555469742 140.20878538303077,100.89328699905309 139.84273100690916,100.81542414746946 139.38516303664073,100.84137843371718 138.9733518634457,100.6856526795018 138.9275950663723,100.4001552365371 138.8589598708786,100.32229224665207 138.7674462768482,100.29633791185915 137.71503994544037,100.55588115093997 136.593998418306,100.73756127394154 135.67886247788556,100.7894698586897 134.7179697403917,100.73756127394154 133.73419860447757,100.6077897696814 130.66849320405163,99.85511384834535 128.95261331566144,99.49175232838024 125.17767756129615,98.97266361754737 123.59906806400977,98.60930094245123 122.04333696537651,98.16807419745601 118.47430679760873,97.00011766373063 118.24552281247452,96.84438975460944 118.1768876168644,96.71461643025395 118.15400921856053,96.4031602042669 118.74884757981636,94.58632525443682 118.88611797080375,94.40464110541507 119.04626676044427,94.24891174022923 119.27505074546207,94.14509211480618 119.59534832462668,94.11913720241864 119.8241323097609,94.14509211480618 120.09867309196852,94.30082153834519 120.30457867856603,94.50846063371864 120.41897067101672,94.71609957382316 120.46472746809013,95.00160286287428 120.44184906955343,95.28710585823865 119.984281099285,96.84438975460944 119.7783755128039,97.75280132627813 119.52671312913299,98.6352554349869 118.06249562441371,103.0993920530018 117.28463007509708,105.85051026265137 116.82706210482866,107.92680784029653 116.27798054052982,110.65192484579165 115.86616936745122,111.89768371082027 115.6602637807373,113.03962442677584 115.38572299864609,113.68845228650025 115.29420940461569,113.99988912057597 115.01966862240806,116.43946556831361 114.76800623885356,117.97067813415197 114.60785744921304,118.4897313247784 114.49346545676235,119.06068871394382 114.42483026115224,119.11259387282189 114.10453268210404,119.55378733229009 113.92150549392682,119.63164492885699 112.57167998177465,119.73545502364868 109.82627216051333,120.02093258406967 106.32587718823925,120.2804573844769 105.61664683441631,120.38426723657176 104.93029487913009,120.64379169733729 104.01515893870965,121.24069703635178 102.80260381754488,122.20093336759601 102.18488705775235,122.82378759069252 101.2468727187952,123.80997058661887 99.98856080067344,125.47090245250729 99.32508724392392,126.53493170821457 99.11918165744282,126.92420968555962 98.9819112662226,127.31348711720784 98.9819112662226,127.49514973186888 99.0963032587897,127.6508604499104 99.37084404088091,127.78061931484262 99.87416880822275,127.91037811918068 99.96568240225315,127.96228162391344 100.10295279324055,128.11799208002049 100.12583119177725,128.22179900220362 100.17158798873425,129.4415274313651 100.12583119177725,129.96055918055936 100.14870959031396,130.6093475028174 100.10295279324055,131.80311405548127 100.12583119177725,132.14048193383496 100.08007439482026,133.33424190463847" stroke="#4DD2FF" stroke-linecap="round" stroke-linejoin="round" stroke-width="0.5"><title>2024-04-25 16.8km</title><desc>11261217299</desc></polyline><polyline fill="none" points="97.6884996057488,254.97333295692806 97.55049958231393,254.97333295692806 97.38949955475982,255.1298672418634 97.41249955876265,255.31249046334415 97.98749965673778,255.41684653624543 99.1604998569237,255.49511356538278 101.36850023351144,255.49511356538278 101.57550026883837,255.52120257017668 101.66750028450042,255.59946957000648 101.69050028838683,255.7560035038914 101.66750028450042,257.19089380823425 101.73650029627606,258.41706695227185 101.64450028061401,260.58242339562275 101.71350029238965,260.7650430507201 101.89750032371376,260.94766258631716 102.54150043358095,261.1824589566968 102.61050044535659,261.3129012993013 102.56450043758377,261.521608920797 102.17350037093274,262.46079128680867 101.73650029627606,263.7912942309922 101.73650029627606,263.8956471349811 101.75950030016247,263.97391178744147 102.31150039436761,264.0 102.47250042180531,263.94782357238 102.65650045324583,263.7391177644022 103.20850054733455,262.8260280204413 103.73750063765328,261.65205110493116 104.17450071207713,260.869397085713 104.54250077495817,260.269360851933 106.2675010691164,257.6865814723715 107.69350131240208,255.18204531728406 108.75150149292313,253.12100392126013 109.14250155957416,252.2078794517147 109.46450161456596,251.32084139293875 110.1775017362088,249.70329414765 111.05150188517291,247.042147641856 111.23550191661343,246.2855425332964 111.55750197160523,245.39848565665307 111.8105020148214,244.4592458914267 112.59250214812346,240.96315899171168 112.93750220700167,239.58036626811372 113.05250222666655,238.8759220582724 113.46650229720399,236.9191232584999 113.74250234430656,235.3014925600437 114.24850243062247,232.9011200533423 114.59350248938426,231.4661048911512 114.70850250904914,231.2834660685039 114.50150247383863,231.02255325738224 114.4785024698358,230.6311835834349 115.05350256792735,227.89158049956313 115.4445026346948,226.22171400030493 115.95050272101071,224.26482648178353 116.7555028583156,221.5251609039551 117.72150302317459,218.60282130952692 118.43450314470101,216.67197300240514 118.75650319969282,215.44561646459624 118.87150321924128,215.18468884637696 119.00950324279256,215.02813215830247 119.21650327811949,214.87157538236352 119.67650335654616,214.7672041495971 120.02150341542438,214.8193897709425 120.18250344286207,214.8976681843924 120.32050346641336,214.9759465760726 120.52750350174028,215.26296715743956 120.64250352128875,215.6021729183849 120.64250352128875,215.7587292844546 120.59650351351593,216.1240271302231 120.11350343108643,217.7417689851427 119.97550340753514,217.97660170070594 119.76850337220822,218.10706423508236 119.51550332899205,218.10706423508236 118.5725031682523,217.95050918657216 117.81350303872023,217.585213731596 117.10050291707739,217.3764732570271 115.81250269745942,216.9328992299561 115.74350268568378,217.16773262619972 115.76650268957019,217.27210296114208 115.85850270523224,217.40256582485745 116.22650276799686,217.6113062800141 116.68650284653995,217.7939540501393 118.66450318391435,218.34189664325095 118.84850321535487,218.4462665390165 118.48050315247383,218.60282130952692 117.9055030544987,218.57672885383363 117.30750295240432,218.39408159605227 116.778502862202,218.36798912083032 116.57150282687508,218.4201740688004 116.38750279555097,218.60282130952692 115.81250269745942,218.68109866179293 115.51350264635403,218.8115608668595 115.07650257181376,218.55063639578293 114.40950245806016,218.39408159605227 113.83450235996861,218.10706423508236 112.1555020735832,217.4547509533004 111.05150188517291,216.9589918392885 109.85550168121699,216.33276854173164 108.45250144193415,215.36733820478548 106.7505011515459,214.2714402610727 103.27750055922661,211.60995590806124 97.41249955876265,206.54784698350704 94.0774989897618,203.2600363229867 92.95049879758153,202.11190283857286 92.67449875047896,201.74658664816525 92.35249869548716,201.45955216305447 91.54749855829868,200.62454107264057 90.2594983385643,199.3981140028627 89.40849819337018,198.6674740369781 87.52249787154142,197.28447171999142 85.0154974439647,195.35347588427248 83.24449714191724,194.04874140201719 82.89949708303902,193.6573198674887 82.71549705171492,193.50075109984027 82.64649703982286,193.29199260633322 82.53149702015799,193.21370813105023 82.50849701638799,193.08323395662592 82.46249700849876,193.03104426985374 81.49649684363976,192.69181106745964 81.17449678876437,192.5352417579561 80.87549673777539,192.2481977956777 79.5644965141546,191.2826841188653 79.2654964630492,190.99563886778196 78.897496400401,190.7868784996681 77.97749624343123,189.87355005249265 77.44849615322892,189.48212265971233 77.05749608646147,189.03850428396254 76.41349597671069,188.6209804623213 75.42449580796529,187.7337402664707 73.9754955607932,186.58554288293817 72.57249532139394,185.59391406652867 70.98549505067058,184.6022817249759 68.75449467008002,183.0887308283709 66.98349436803255,181.96661020704778 65.51149411697406,180.9488689956197 62.75149364606477,178.75679838925134 61.85449349321425,177.89562308051973 59.73849313217215,175.62523906692513 58.88749298697803,174.34650890063494 57.53049275558442,172.1021928017144 56.6794926103903,170.6407679587428 54.333492210134864,166.28254483133787 53.78149211604614,165.1864540450042 53.34449204138946,164.42962694028392 52.72349193552509,163.17694308122736 50.860491617699154,159.6537395589403 50.1014914882835,157.85297390224878 49.2964913508622,156.10439322327147 49.27349134697579,156.0 49.36549136263784,156.36537611024687 49.779491433291696,157.20051970731583 50.584491570713,159.02738760600914 50.952491633361205,159.96691500788438 56.8634926417144,171.16270628175698 58.680492951651104,174.11163945728913 59.83049314795062,175.8601072356978 60.129493198823184,176.19936090806732 60.42849324981216,176.4081321937265 60.81949331657961,176.87786701502046 62.015493520651944,178.1043930965243 62.63649362651631,178.65241364494432 64.66049397177994,180.29646883005626 66.20149423461407,181.44469210098032 68.3864946073154,182.98434770517633 72.9864953920478,185.95925140901818 74.4814956469927,187.02916515950346 77.17249610612635,189.2733611589356 78.29949629830662,190.26497689599637 78.80549638462253,190.63030812103534 79.5644965141546,191.41315913532162 80.76049671822693,192.19600795264705 82.23249696928542,193.3441822443565 84.6704973852029,195.1186241277901 87.24649782467168,197.15399944939418 88.67249806784093,198.171681541804 90.74249842087738,199.91999852127628 91.68549858184997,200.8854823067668 92.16849866416305,201.3290818449168 93.96249897021335,203.2600363229867 96.46949939790647,205.79113208912895 98.72349978238344,207.85252301645232 99.39049989602063,208.34829830942908 99.8044999667909,208.79188598284964 100.72450012364425,209.60077933652792 105.00250085350126,213.09725911688292 106.29050107311923,214.1148830606253 107.02650119876489,214.63674005382927 109.32650159113109,216.15011981525458 110.31550175976008,216.67197300240514 110.72950183029752,216.9589918392885 111.09750189317856,217.11554744411842 111.71850199904293,217.4547509533004 112.22450208535884,217.6634913693124 113.83450235996861,218.23752670854446 114.7775025209412,218.65500621349202 115.81250269745942,218.94202301089535 116.7555028583156,219.255131907732 117.62950300739612,219.41168622436817 118.34250312903896,219.62042517669033 119.51550332899205,219.85525631142082 122.48250383522827,220.37710256996797 123.47150400397368,220.48147170458105 124.000504094176,220.5858408001368 124.52950418437831,220.6641175962577 125.03550427069422,220.79457887419267 130.1415051416261,221.6556217794132 131.68250540457666,221.89045120158698 135.15550599701237,221.75999043587944 136.12150616175495,221.68171394715318 136.81150627951138,221.5773452614667 141.54950708767865,220.0900872485072 141.84850713866763,220.06399493195931 142.6075072681997,219.85525631142082 143.435507409391,219.5682404532563 149.07050837064162,217.97660170070594 150.47350860992447,217.42865839030128 150.72650865314063,217.40256582485745 150.15150855504908,217.50693607196445 149.3695084216306,217.8200465789414 147.82850815868005,218.28971168081625 145.50550776254386,218.94202301089535 143.48150741728023,219.5682404532563 138.90450663655065,220.8989478526928 136.94950630294625,221.49906872148858 135.91450612642802,221.68171394715318 134.46550587925594,221.70780611253576 132.7635055888677,221.81217474941514 131.33750534569845,221.81217474941514 128.9685049415566,221.44688434933778 128.4395048513543,221.29033117435756 127.4735046866117,221.10768569255015 126.18550446687732,220.9250400911842 123.37950398819521,220.4292871421785 120.09050342720002,219.88134864755557 118.50350315647665,219.5682404532563 118.36550313292537,219.46387097713887 118.11250308982562,219.17685471646837 117.9285030583851,219.04639268218307 116.66350284265354,218.55063639578293 115.99650272878353,217.92441666987725 115.99650272878353,217.76786151886336 116.15750275633764,217.71567644903553 116.66350284265354,217.89832415082492 119.5845033407677,218.65500621349202 119.49250332522206,218.36798912083032 119.4005033094436,218.23752670854446 119.21650327811949,218.13315673469333 118.41150314069819,217.89832415082492 117.60650300350972,217.5330286276294 116.08850274444558,217.06336225231644 115.76650268957019,216.9328992299561 115.69750267779455,216.85462138731964 115.6055026621325,216.67197300240514 115.6055026621325,216.41104653078946 116.04250273655634,214.7411113353446 116.20350276411045,214.4540902172448 116.43350280332379,214.21925453734002 116.66350284265354,214.1148830606253 117.00850290141534,214.06269730761414 117.35350296029355,214.14097593349288 117.56050299562048,214.29753311930108 117.76750303094741,214.50627589703072 117.83650304272305,214.66283287788974 117.9055030544987,215.02813215830247 117.85950304660946,215.31515268597286 117.05450290930457,218.36798912083032 116.2725027758861,220.6902098567516 116.06550274055917,221.5251609039551 115.49050264246762,223.1950555043004 114.84650253260043,225.28240970382467 114.38650245417375,227.31756501740892 113.71950234042015,230.60509225237183 113.71950234042015,230.89209676042083 113.58150231686886,231.04864454944618 113.42050228931475,231.98792944019078 113.07550223055296,233.13594001386082 112.70750216778833,234.04912687119213 112.6615021598991,234.72749231685884 112.50050213234499,235.90158246137435 112.477502128575,236.34512634179555 112.1785020774696,238.17147607065272 111.92550203436986,239.0063748237444 111.67250199127011,239.34555172894034 111.53450196771882,239.8151806096139 111.48850195982959,240.441351221496 111.37350194016472,240.75443600057042 110.26950175187085,245.5028454355197 110.22350174398161,245.58111524404376 110.03950171265751,245.63329510419862 107.92350135161541,245.6072051753581 105.69250097114127,245.6854749546328 102.88650049245916,245.65938503062353 102.51850042969454,245.7376547952008 102.19650037470274,246.15509316939279 101.7825003041653,246.88560882210732 101.6215002767276,247.25086593159358 101.41450024140067,247.85093014550512 101.39150023751426,248.8162481309264 101.46050024928991,250.8251424266491 101.39150023751426,251.11212614600663 101.39150023751426,251.94698619752307 101.34550022962503,252.18179013728513 101.20750020619016,252.26005807326874 100.74750012753066,252.28614738036413 98.26349970384035,252.23396876372863 97.6654996018624,252.28614738036413 97.48149957042187,252.4165938794904 97.36649955087341,252.72966522857314 97.36649955087341,253.56452044312027" stroke="#4DD2FF" stroke-linecap="round" stroke-linejoin="round" stroke-width="0.5"><title>2024-04-23 17.4km</title><desc>11261217783</desc></polyline></svg>