<?xml version="1.0" encoding="utf-8" ?>
<svg baseProfile="full" height="200mm" version="1.1" viewBox="0,0,200,200" width="200mm" xmlns="http://www.w3.org/2000/svg" xmlns:ev="http://www.w3.org/2001/xml-events" xmlns:xlink="http://www.w3.org/1999/xlink"><defs /><rect fill="#1a1a1a" height="200" width="200" x="0" y="0" /><text alignment-baseline="middle" fill="#e1ed5e" style="dominant-baseline: central; font-size:9.0px; font-family:Arial;" text-anchor="middle" x="100.0" y="100.0">2024</text><line stroke="#e1ed5e" stroke-width="0.3" x1="100.0" x2="100.0" y1="15.0" y2="10.0" /><path d="M 100.0 14.0 a86.0,86.0 0 0,1 42.35913384403234,11.155469271406648" fill="none" id="id1" stroke="none" /><text fill="#e1ed5e" style="font-size:6.75px; font-family:Arial;" text-anchor="middle"><textPath startOffset="22.145653131862478" xlink:href="#id1">January</textPath></text><line stroke="#e1ed5e" stroke-width="0.3" x1="143.13028292997686" x2="145.6673583964461" y1="26.7553504044142" y2="22.446841604673864" /><path d="M 143.63769802327073 25.89364864446614 a86.0,86.0 0 0,1 29.32050498858742,28.57503671076993" fill="none" id="id2" stroke="none" /><text fill="#e1ed5e" style="font-size:6.75px; font-family:Arial;" text-anchor="middle"><textPath startOffset="20.669276256404974" xlink:href="#id2">February</textPath></text><line stroke="#e1ed5e" stroke-width="0.3" x1="172.87174338648825" x2="177.1583165268699" y1="56.24261187166439" y2="53.66864786411523" /><path d="M 173.72905801456457 55.72781907015455 a86.0,86.0 0 0,1 12.242430191666344,42.057860355516425" fill="none" id="id3" stroke="none" /><text fill="#e1ed5e" style="font-size:6.75px; font-family:Arial;" text-anchor="middle"><textPath startOffset="22.145653131862474" xlink:href="#id3">March</textPath></text><line stroke="#e1ed5e" stroke-width="0.3" x1="184.99686870605535" x2="189.99668451229388" y1="99.2704041080226" y2="99.22748670261217" /><path d="M 185.99683186730306 99.26182062694052 a86.0,86.0 0 0,1 -10.086455211305974,41.156179273409016" fill="none" id="id4" stroke="none" /><text fill="#e1ed5e" style="font-size:6.75px; font-family:Arial;" text-anchor="middle"><textPath startOffset="21.40746469413373" xlink:href="#id4">April</textPath></text><path d="M 119.58574465831526 107.57618678355244 l 58.75723397494581 22.728560350657347 a84.0,84.0 0 0,0 -0.5317653001355023,1.3403959311457434 l -58.358409999844184 -23.733857299016655" fill="red" stroke="none" /><path d="M 119.31412917781788 108.2440532568976 l 56.166385887520825 23.974090275629923 a82.06897664289087,82.06897664289087 0 0,0 -0.5641895030844987,1.2909759942774817 l -55.74656250241936 -24.93472833968325" fill="red" stroke="none" /><line stroke="#e1ed5e" stroke-width="0.3" x1="174.33088141563837" x2="178.70328620479359" y1="141.23008692659167" y2="143.65538615756765" /><path d="M 175.20536237346943 141.71514677278685 a86.0,86.0 0 0,1 -30.301960400862466,31.631185727798858" fill="none" id="id5" stroke="none" /><text fill="#e1ed5e" style="font-size:6.75px; font-family:Arial;" text-anchor="middle"><textPath startOffset="22.145653131862474" xlink:href="#id5">May</textPath></text><line stroke="#e1ed5e" stroke-width="0.3" x1="143.1302829299769" x2="145.66735839644613" y1="173.24464959558577" y2="177.55315839532614" /><path d="M 143.63769802327073 174.10635135553383 a86.0,86.0 0 0,1 -40.68552437913181,11.842963189579606" fill="none" id="id6" stroke="none" /><text fill="#e1ed5e" style="font-size:6.75px; font-family:Arial;" text-anchor="middle"><textPath startOffset="21.407464694133747" xlink:href="#id6">June</textPath></text><line stroke="#e1ed5e" stroke-width="0.3" x1="101.45913802915013" x2="101.54496967792366" y1="184.9874750549273" y2="189.98673829345242" /><path d="M 101.47630435890484 185.9873277026323 a86.0,86.0 0 0,1 -42.54439059252881,-10.42667462771756" fill="none" id="id7" stroke="none" /><text fill="#e1ed5e" style="font-size:6.75px; font-family:Arial;" text-anchor="middle"><textPath startOffset="22.145653131862474" xlink:href="#id7">July</textPath></text><line stroke="#e1ed5e" stroke-width="0.3" x1="58.13341422392154" x2="55.67067388415222" y1="173.97424548756322" y2="178.32567169271397" /><path d="M 57.64086615596768 174.84453072859336 a86.0,86.0 0 0,1 -31.369924170532247,-30.572349798747897" fill="none" id="id8" stroke="none" /><text fill="#e1ed5e" style="font-size:6.75px; font-family:Arial;" text-anchor="middle"><textPath startOffset="22.145653131862474" xlink:href="#id8">August</textPath></text><line stroke="#e1ed5e" stroke-width="0.3" x1="26.387840678322732" x2="22.057713659400548" y1="142.50000000000003" y2="145.00000000000006" /><path d="M 25.521815274538298 143.00000000000003 a86.0,86.0 0 0,1 -11.493303480769221,-40.785679425670985" fill="none" id="id9" stroke="none" /><text fill="#e1ed5e" style="font-size:6.75px; font-family:Arial;" text-anchor="middle"><textPath startOffset="21.40746469413373" xlink:href="#id9">September</textPath></text><line stroke="#e1ed5e" stroke-width="0.3" x1="15.003131293944662" x2="10.003315487706104" y1="100.72959589197737" y2="100.7725132973878" /><path d="M 14.003168132696942 100.73817937305945 a86.0,86.0 0 0,1 10.791469493833604,-42.45332614584628" fill="none" id="id10" stroke="none" /><text fill="#e1ed5e" style="font-size:6.75px; font-family:Arial;" text-anchor="middle"><textPath startOffset="22.145653131862435" xlink:href="#id10">October</textPath></text><path d="M 79.22317932658666 96.9465228501225 l -18.48230389784678 -2.7162621998939005 a39.68083610845443,39.68083610845443 0 0,0 0.10483017038109556,-0.6730848939367962 l 18.43295223532742 3.033135275762147" fill="red" stroke="none" /><path d="M 79.2786578344484 96.59031103205396 l -18.240621466463097 -3.001487320935964 a39.48591890116728,39.48591890116728 0 0,0 0.11579750104834388,-0.667889214058432 l 18.186409147922518 3.314169567914989" fill="red" stroke="none" /><path d="M 79.64726062577567 94.8264132398404 l -17.90102028848011 -4.550369355936325 a39.470311005611705,39.470311005611705 0 0,0 0.17256141648686493,-0.6552438054774135 l 17.82026939118852 4.856993665786522" fill="red" stroke="none" /><path d="M 80.16572619554312 93.10060997987247 l -17.46557931694907 -6.075435119183771 a39.492089464526465,39.492089464526465 0 0,0 0.22822634581068155,-0.638389708223049 l 17.358712801094445 6.3743597837877415" fill="red" stroke="none" /><path d="M 80.41425534168474 92.42381321644754 l -20.393702044862966 -7.8887220575706145 a42.866298699053964,42.866298699053964 0 0,0 0.2713667880166586,-0.6840215757081763 l 20.255276581880175 8.237644650492374" fill="red" stroke="none" /><path d="M 80.83023694016515 91.42560881287825 l -16.76876586477505 -7.500455681222894 a39.369767120288536,39.369767120288536 0 0,0 0.28124174681344144,-0.6145639728415786 l 16.637539653106565 7.787208636279144" fill="red" stroke="none" /><path d="M 81.46374523516351 90.13048839642627 l -16.145399785057073 -8.59651599228347 a39.291364668195385,39.291364668195385 0 0,0 0.3221043403613782,-0.5926357068969997 l 15.995450095080345 8.872406532655088" fill="red" stroke="none" /><line stroke="#e1ed5e" stroke-width="0.3" x1="26.387840678322718" x2="22.05771365940052" y1="57.49999999999999" y2="54.99999999999999" /><path d="M 25.521815274538284 56.99999999999999 a86.0,86.0 0 0,1 29.574782752854787,-30.34633250058573" fill="none" id="id11" stroke="none" /><text fill="#e1ed5e" style="font-size:6.75px; font-family:Arial;" text-anchor="middle"><textPath startOffset="21.40746469413373" xlink:href="#id11">November</textPath></text><path d="M 81.81346652052679 89.5 l -15.782003961670469 -9.111744235622188 a39.22348847124437,39.22348847124437 0 0,0 0.3416670105624812,-0.5802252794782181 l 15.62326324097821 9.38132068339398" fill="red" stroke="none" /><path d="M 82.37810715431573 88.57770195909679 l -15.281661290581182 -9.905388220760909 a39.211147344526,39.211147344526 0 0,0 0.3709665094874128,-0.5616905768878722 l 15.10937034217304 10.16625867598784" fill="red" stroke="none" /><path d="M 82.576782715395 88.27688183743585 l -15.244587341368527 -10.257238707589506 a39.37412281207149,39.37412281207149 0 0,0 0.38213573014259355,-0.5575474505426966 l 15.06626187441062 10.517420893202237" fill="red" stroke="none" /><path d="M 82.78059297857968 87.97951657250589 l -14.963282347958236 -10.445533185945406 a39.24853369899635,39.24853369899635 0 0,0 0.3904012425979959,-0.5491482390011407 l 14.781766006830267 10.700858651656068" fill="red" stroke="none" /><path d="M 83.42222388311158 87.10902102172516 l -14.377638573518599 -11.180138717137522 a39.21296221610223,39.21296221610223 0 0,0 0.4177740953202919,-0.5278439218342476 l 14.183598047556744 11.425302582886452" fill="red" stroke="none" /><path d="M 84.10781606972428 86.27271002978789 l -13.802538368029932 -11.922303903239435 a39.238733392484704,39.238733392484704 0 0,0 0.4446849719852325,-0.5059698684247909 l 13.595842332086107 12.157486049475525" fill="red" stroke="none" /><path d="M 84.34580500576568 86.00192230759919 l -13.565267380177065 -12.13014573894395 a39.1977172948619,39.1977172948619 0 0,0 0.4528312541659074,-0.4977408726882573 l 13.355038425169292 12.361224187189865" fill="red" stroke="none" /><path d="M 85.34317274990677 84.96080404539775 l -12.850205203214838 -13.185442579789433 a39.41150916654183,39.41150916654183 0 0,0 0.4885666766487029,-0.46803582440411556 l 12.621966040700835 13.404090534499117" fill="red" stroke="none" /><path d="M 85.86807049272753 84.46653392183569 l -12.264700099495156 -13.48105386856945 a39.2253033428206,39.2253033428206 0 0,0 0.5019624210322481,-0.4488578921409222 l 12.031472651639517 13.689607290593774" fill="red" stroke="none" /><line stroke="#e1ed5e" stroke-width="0.3" x1="56.869717070023135" x2="54.33264160355391" y1="26.7553504044142" y2="22.446841604673864" /><path d="M 56.362301976729285 25.89364864446614 a86.0,86.0 0 0,1 42.16139366436587,-11.88097634709845" fill="none" id="id12" stroke="none" /><text fill="#e1ed5e" style="font-size:6.75px; font-family:Arial;" text-anchor="middle"><textPath startOffset="22.145653131862474" xlink:href="#id12">December</textPath></text></svg>